<svg xmlns="http://www.w3.org/2000/svg" viewBox="0 0 64 64" width="64" height="64" role="img" aria-label="HonorBox">
  <!-- The org avatar: the same mark as the favicon and the lockup, reversed on
       an ink plate. GitHub crops avatars to a circle, so the mark is scaled to
       keep the foot's bottom corners inside the inscribed circle: at this
       scale the far corner sits 27.1 units from centre, inside the 32 radius. -->
  <rect width="64" height="64" fill="#0a0a0a"/>
  <g transform="translate(6.8,0.5) scale(1.05)">
    <path fill="#fafafa" d="M9,15H39A3,3 0 0 1 42,18V42H6V18A3,3 0 0 1 9,15ZM4.5,39H43.5A1.5,1.5 0 0 1 45,40.5V43.5A1.5,1.5 0 0 1 43.5,45H4.5A1.5,1.5 0 0 1 3,43.5V40.5A1.5,1.5 0 0 1 4.5,39ZM18,24A3,3 0 0 0 15,27A3,3 0 0 0 18,30H30A3,3 0 0 0 33,27A3,3 0 0 0 30,24H18Z"/>
  </g>
</svg>
